<?xml version="1.0" standalone="no"?>
<!DOCTYPE svg PUBLIC "-//W3C//DTD SVG 20010904//EN"
 "http://www.w3.org/TR/2001/REC-SVG-20010904/DTD/svg10.dtd">
<svg version="1.0" xmlns="http://www.w3.org/2000/svg"
 width="1266.000000pt" height="1266.000000pt" viewBox="0 0 1266.000000 1266.000000"
 preserveAspectRatio="xMidYMid meet">
<metadata>
Created by potrace 1.11, written by Peter Selinger 2001-2013
</metadata>
<g transform="translate(0.000000,1266.000000) scale(0.100000,-0.100000)"
fill="#000000" stroke="none">
<path d="M6279 12634 c-69 -20 -61 -9 -330 -445 -102 -166 -103 -167 -138
-166 -20 0 -54 -3 -76 -7 -43 -7 -26 -21 -194 160 -294 317 -301 323 -357 340
-50 14 -59 14 -104 -1 -59 -20 -99 -62 -124 -130 -9 -28 -22 -59 -27 -70 -4
-11 -45 -119 -89 -240 -44 -121 -84 -226 -88 -234 -5 -8 -41 -26 -81 -39 l-72
-24 -69 49 c-38 26 -156 111 -262 187 -106 77 -209 145 -228 152 -52 18 -115
9 -158 -24 -59 -44 -73 -71 -87 -172 -3 -25 -12 -79 -20 -120 -8 -41 -17 -99
-20 -129 -3 -29 -7 -56 -9 -60 -4 -6 -15 -70 -21 -121 -5 -40 -16 -104 -21
-121 -4 -14 -121 -79 -142 -79 -9 0 -78 30 -212 92 -254 118 -372 168 -403
173 -78 13 -162 -36 -194 -112 -11 -29 -13 -67 -8 -207 11 -277 15 -380 16
-391 4 -74 -5 -106 -35 -129 -17 -13 -42 -33 -55 -45 -28 -25 -63 -20 -291 39
-113 30 -342 80 -377 84 -45 4 -116 -22 -140 -52 -28 -36 -53 -92 -53 -122 0
-17 18 -108 41 -203 23 -94 43 -181 45 -192 2 -11 17 -74 33 -140 l29 -119
-48 -61 -49 -60 -68 2 c-37 1 -142 4 -233 7 -237 8 -362 9 -387 3 -64 -16
-125 -99 -125 -171 0 -41 31 -118 167 -411 80 -174 92 -201 99 -221 4 -15 -5
-41 -31 -86 l-37 -66 -101 -16 c-55 -8 -111 -18 -125 -20 -14 -3 -41 -7 -60
-10 -19 -3 -46 -8 -60 -10 -14 -3 -43 -7 -65 -11 -44 -6 -99 -15 -130 -22 -11
-2 -35 -6 -54 -8 -95 -10 -164 -82 -167 -174 0 -31 4 -67 11 -81 11 -22 169
-247 225 -320 11 -14 50 -69 88 -123 l70 -98 -15 -47 c-9 -26 -17 -58 -20 -72
-5 -27 -15 -31 -373 -165 -220 -82 -234 -88 -269 -113 -38 -29 -70 -92 -71
-141 0 -60 35 -112 142 -211 56 -52 120 -112 142 -133 23 -21 85 -79 138 -129
54 -49 96 -93 94 -97 -2 -3 -7 -37 -11 -76 -4 -38 -7 -70 -8 -71 -1 0 -27 -15
-57 -34 -92 -56 -95 -57 -104 -58 -5 0 -12 -5 -15 -10 -6 -9 -95 -66 -300
-191 -98 -59 -128 -97 -137 -172 -6 -52 23 -118 70 -155 20 -16 89 -61 153
-101 65 -40 178 -109 251 -154 73 -45 134 -85 137 -89 3 -4 7 -29 10 -56 3
-27 7 -61 9 -77 2 -15 -2 -31 -9 -35 -7 -4 -42 -34 -77 -66 -112 -105 -330
-310 -364 -342 -80 -76 -83 -192 -9 -264 26 -25 98 -56 336 -146 167 -63 306
-117 310 -122 3 -4 15 -38 27 -75 l20 -68 -58 -82 c-32 -45 -69 -97 -82 -115
-13 -18 -28 -39 -33 -45 -6 -7 -26 -34 -45 -62 -32 -47 -90 -127 -109 -151
-42 -52 -63 -98 -67 -143 -8 -111 66 -188 196 -205 79 -10 171 -25 325 -51 83
-15 164 -28 180 -29 57 -5 70 -15 102 -85 l33 -68 -61 -134 c-33 -74 -74 -163
-91 -199 -36 -77 -61 -133 -63 -140 -1 -3 -14 -32 -29 -65 -49 -105 -27 -199
58 -254 43 -26 48 -27 175 -26 72 1 134 5 137 8 3 3 19 1 35 -3 16 -5 29 -6
29 -2 0 4 80 8 178 9 l177 2 45 -55 c25 -30 45 -60 45 -67 -1 -12 -8 -42 -56
-242 -16 -66 -32 -132 -34 -147 -3 -15 -9 -38 -15 -52 -5 -15 -8 -26 -6 -26 2
0 -4 -33 -15 -72 -24 -93 -24 -132 1 -183 37 -76 117 -113 206 -95 61 12 57
11 239 55 83 19 163 38 179 40 15 3 49 11 75 19 25 7 49 14 54 15 4 0 8 1 10
2 31 10 58 0 109 -40 52 -42 58 -50 59 -86 1 -22 0 -44 -1 -50 -1 -5 -3 -62
-5 -125 -2 -63 -6 -190 -10 -281 -6 -155 -5 -170 13 -213 15 -32 34 -54 67
-75 65 -41 127 -40 217 5 38 19 71 35 75 36 5 1 37 15 73 32 36 16 67 30 70
31 3 1 30 13 60 27 30 14 97 44 149 68 l94 42 62 -30 c34 -17 67 -37 72 -44
10 -12 19 -55 28 -137 3 -19 9 -57 14 -85 6 -28 13 -68 16 -89 12 -89 16 -113
20 -127 3 -8 7 -33 10 -55 3 -22 8 -56 12 -75 3 -19 6 -38 5 -42 -3 -13 27
-74 48 -95 30 -32 89 -60 129 -61 50 -1 88 18 198 97 54 39 170 122 258 185
174 126 158 120 260 86 l50 -17 101 -269 c56 -148 109 -288 119 -311 32 -79
120 -131 196 -117 70 14 58 4 344 309 61 64 128 137 151 161 23 26 46 43 55
40 8 -3 40 -7 72 -9 32 -3 64 -11 71 -18 7 -8 82 -126 165 -264 147 -240 216
-330 255 -333 97 -8 132 0 178 40 22 19 177 256 201 308 4 8 25 42 47 75 22
33 47 74 54 91 8 17 22 36 30 44 9 7 16 18 16 26 0 19 18 27 74 31 28 1 60 5
72 8 21 5 48 -22 320 -314 145 -156 160 -170 187 -180 47 -18 80 -21 121 -10
75 20 112 64 151 179 1 3 7 19 14 35 7 17 14 35 15 40 1 9 38 106 56 150 5 11
12 31 16 45 3 14 14 43 24 65 9 22 29 72 44 110 l26 70 75 22 76 22 154 -112
c85 -62 166 -118 180 -125 14 -7 25 -17 25 -22 0 -5 8 -11 18 -14 10 -4 27
-14 38 -24 26 -25 105 -77 129 -86 63 -25 143 -10 191 35 43 40 50 69 110 442
2 15 6 41 9 57 10 62 14 87 24 149 6 36 14 68 18 72 4 4 36 22 71 39 l63 32
162 -73 c89 -40 205 -92 257 -117 163 -76 190 -85 244 -78 71 8 137 64 152
127 9 36 4 296 -10 586 l-5 92 61 51 c46 38 67 50 82 45 12 -3 31 -8 43 -11
12 -2 71 -16 130 -30 60 -14 115 -27 123 -29 8 -2 65 -15 125 -30 61 -14 125
-28 144 -31 18 -2 37 -7 43 -10 5 -3 32 0 61 6 66 16 119 68 133 132 11 47 9
62 -61 353 -9 39 -19 80 -21 93 -3 13 -16 69 -29 125 -14 56 -25 108 -25 115
0 7 21 38 47 68 l47 55 187 -4 c103 -2 191 -7 197 -11 6 -3 13 -2 17 4 4 6 13
7 23 2 9 -4 74 -8 144 -7 126 0 127 0 165 31 86 70 99 150 44 269 -18 39 -44
95 -58 125 -14 30 -37 82 -52 115 -16 33 -41 89 -57 125 -16 36 -38 85 -50
110 -17 36 -20 49 -11 65 6 11 12 22 12 25 2 7 38 68 50 85 6 7 33 16 60 20
28 3 68 10 90 15 22 5 65 11 95 15 30 4 73 11 96 15 22 5 61 12 85 15 24 3 51
7 59 10 8 2 37 7 64 9 62 7 113 23 149 48 54 38 83 132 62 199 -9 28 -124 197
-198 289 -7 9 -25 36 -42 60 -16 25 -33 50 -38 55 -63 82 -107 146 -107 156 0
6 9 42 21 80 18 59 25 70 47 76 15 3 36 12 47 19 11 8 26 14 33 14 8 0 28 6
45 14 31 13 177 68 338 127 105 38 142 58 175 98 23 28 28 44 30 98 3 78 -12
107 -94 184 -32 30 -112 104 -178 165 -65 62 -145 136 -177 166 l-59 55 7 59
c3 32 7 67 9 78 2 16 82 72 226 156 19 11 47 28 61 38 15 9 48 30 75 47 170
102 216 137 235 178 25 57 24 114 -4 167 -20 39 -45 57 -212 161 -105 65 -195
123 -202 128 -7 6 -14 11 -17 11 -3 0 -41 23 -84 50 l-79 50 -7 77 -6 77 35
31 c19 17 72 67 119 111 46 43 139 131 206 194 68 63 129 129 137 147 28 67
11 151 -40 204 -27 28 -30 29 -402 168 l-240 89 -23 69 c-24 73 -23 97 5 129
10 11 23 27 28 36 6 9 79 112 163 228 84 117 158 224 163 238 16 41 13 106 -6
142 -38 74 -80 97 -210 115 -22 3 -65 10 -95 15 -30 5 -68 11 -85 14 -112 18
-215 36 -245 41 -19 4 -51 8 -70 10 -19 2 -38 4 -42 4 -5 1 -8 5 -8 10 0 5
-15 36 -34 69 l-34 60 38 83 c20 46 53 119 73 162 21 42 37 79 37 81 0 3 22
51 48 108 58 123 70 153 76 193 13 73 -44 164 -117 189 -21 7 -63 11 -95 10
-31 -2 -142 -6 -247 -9 -104 -3 -225 -6 -269 -8 l-78 -2 -50 57 c-52 60 -51
56 -33 143 3 17 22 95 41 175 101 421 96 392 77 451 -26 76 -118 137 -187 123
-11 -2 -34 -7 -51 -10 -16 -2 -46 -9 -65 -14 -19 -5 -49 -12 -67 -15 -18 -3
-43 -9 -57 -15 -15 -5 -26 -7 -26 -4 0 4 -7 1 -15 -6 -9 -7 -18 -10 -21 -7 -3
3 -35 -3 -71 -14 -37 -10 -84 -21 -106 -24 -21 -4 -49 -10 -61 -15 -13 -4 -39
-11 -60 -14 -33 -5 -43 -1 -96 41 l-59 48 5 95 c6 133 15 389 16 490 1 94 -13
139 -60 182 -35 33 -77 46 -133 43 -41 -2 -74 -15 -244 -95 -38 -18 -88 -41
-110 -50 -22 -10 -83 -38 -136 -63 -131 -61 -148 -64 -198 -33 -22 14 -45 26
-50 26 -21 0 -33 38 -57 181 -14 84 -26 164 -28 178 -3 25 -10 62 -22 126 -3
17 -7 50 -10 75 -7 68 -32 135 -62 168 -52 57 -143 73 -212 37 -27 -14 -135
-88 -185 -127 -5 -5 -40 -30 -77 -56 -36 -26 -112 -80 -168 -120 l-101 -74
-76 24 c-75 23 -77 24 -93 68 -9 25 -19 52 -23 60 -3 8 -31 85 -62 170 -31 85
-63 173 -72 195 -8 22 -19 49 -22 60 -4 11 -18 42 -31 68 -43 89 -154 127
-240 82 -33 -17 -57 -40 -187 -180 -30 -33 -109 -117 -175 -187 l-119 -126
-52 5 c-29 3 -63 6 -77 7 -20 2 -48 40 -170 237 -207 335 -202 329 -235 349
-49 30 -104 39 -156 24z"/>
</g>
</svg>
